<?xml version="1.0" encoding="UTF-8" standalone="no"?>
<!DOCTYPE svg PUBLIC "-//W3C//DTD SVG 20010904//EN"
"http://www.w3.org/TR/2001/REC-SVG-20010904/DTD/svg10.dtd">
<!-- Created with Sodipodi ("http://www.sodipodi.com/") -->
<svg
   id="svg1"
   sodipodi:version="0.32"
   width="210mm"
   height="297mm"
   sodipodi:docname="ipod.svg"
   xmlns="http://www.w3.org/2000/svg"
   xmlns:sodipodi="http://sodipodi.sourceforge.net/DTD/sodipodi-0.dtd"
   xmlns:xlink="http://www.w3.org/1999/xlink"
   xmlns:inkscape="http://www.inkscape.org/namespaces/inkscape"
   inkscape:version="0.38.1"
   sodipodi:docbase="/home/ulrich/gnupod/sources/doc">
  <defs
     id="defs3">
    <linearGradient
       id="linearGradient15">
      <stop
         style="stop-color:#b7b7b2;stop-opacity:1;"
         offset="0.000000"
         id="stop16" />
      <stop
         style="stop-color:#dfdfdd;stop-opacity:1;"
         offset="1.000000"
         id="stop17" />
    </linearGradient>
    <linearGradient
       xlink:href="#linearGradient15"
       id="linearGradient18" />
    <radialGradient
       xlink:href="#linearGradient15"
       id="radialGradient19"
       cx="0.0148173"
       cy="-0.00783029"
       fx="0.0148173"
       fy="-0.00783029"
       r="1.93508"
       gradientUnits="objectBoundingBox"
       gradientTransform="matrix(0.99228,0,0,1.00778,1.19299,0.0703926)"
       spreadMethod="pad" />
  </defs>
  <sodipodi:namedview
     id="base"
     inkscape:zoom="0.42998504"
     inkscape:cx="329.08292"
     inkscape:cy="569.83084"
     inkscape:window-width="640"
     inkscape:window-height="499"
     inkscape:window-x="252"
     inkscape:window-y="28" />
  <rect
     style="font-size:12.000000;fill:#e7e7e7;fill-rule:evenodd;stroke:#f2f2f2;stroke-width:8.9929399;stroke-linecap:round;stroke-linejoin:round;"
     id="rect7"
     x="104.80257"
     y="73.624976"
     width="545.08220"
     height="882.00712"
     rx="0.0000000"
     ry="0.0000000"
     transform="matrix(0.999997,-2.557807e-3,2.731420e-3,0.999996,0.000000,0.000000)" />
  <rect
     style="font-size:12.000000;fill:#d7d9b4;fill-rule:evenodd;stroke:#d7d9aa;stroke-width:6.5121288;stroke-linejoin:round;"
     id="rect8"
     x="194.81084"
     y="117.10840"
     width="366.36676"
     height="294.00239"
     rx="0.0000000"
     ry="0.0000000"
     transform="matrix(0.999997,-2.557807e-3,2.731420e-3,0.999996,0.000000,0.000000)" />
  <path
     sodipodi:type="arc"
     style="font-size:12;fill:#d5d5d5;fill-rule:evenodd;stroke:#aaaaaa;stroke-width:0.150584;"
     id="path9"
     d="M -407.723083 1293.809326 A 75.281479 69.938904 0 1 0 -558.286072,1293.809326 A 75.2815 69.9389 0 1 0 -407.723 1293.81 L -483.004578 1293.809326 z"
     sodipodi:cx="-483.004578"
     sodipodi:cy="1293.809326"
     sodipodi:rx="75.281479"
     sodipodi:ry="69.938904"
     transform="matrix(3.026807,-7.741969e-3,8.609720e-3,3.152776,1830.390,-3399.577)" />
  <path
     sodipodi:type="arc"
     style="font-size:12;fill:#c5c5c5;fill-rule:evenodd;stroke-width:1pt;"
     id="path10"
     d="M -377.610535 1242.326416 A 62.167938 57.311096 0 1 0 -501.946411,1242.326416 A 62.1679 57.3111 0 1 0 -377.611 1242.33 L -439.778473 1242.326416 z"
     sodipodi:cx="-439.778473"
     sodipodi:cy="1242.326416"
     sodipodi:rx="62.167938"
     sodipodi:ry="57.311096"
     transform="matrix(2.874681,-7.354752e-3,8.242576e-3,3.017628,1632.472,-3069.558)" />
  <path
     sodipodi:type="arc"
     style="font-size:12;fill:url(#radialGradient19);fill-rule:evenodd;stroke:#676767;stroke-width:0.0757209;"
     id="path11"
     d="M -472.805176 1231.155762 A 16.027679 14.084900 0 1 0 -504.860535,1231.155762 A 16.0277 14.0849 0 1 0 -472.805 1231.16 L -488.832855 1231.155762 z"
     sodipodi:cx="-488.832855"
     sodipodi:cy="1231.155762"
     sodipodi:rx="16.027679"
     sodipodi:ry="14.084900"
     transform="matrix(3.902658,-9.980032e-3,1.174844e-2,4.297468,2272.386,-4612.958)" />
  <path
     style="font-size:12.000000;fill:none;fill-rule:evenodd;stroke:#949494;stroke-width:0.78233445;"
     d="M 221.40076,842.00906 L 255.66810,807.76806"
     id="path23" />
  <path
     style="font-size:12.000000;fill:none;fill-rule:evenodd;stroke:#949494;stroke-width:0.78233445;"
     d="M 504.10320,559.46371 L 538.37055,525.22270"
     id="path25" />
  <path
     style="font-size:12.000000;fill:none;fill-rule:evenodd;stroke:#949494;stroke-width:0.79962736;"
     d="M 507.01638,802.42238 L 543.17243,836.32542"
     id="path26" />
  <path
     style="font-size:12.000000;fill:none;fill-rule:evenodd;stroke:#949494;stroke-width:0.76779306;"
     d="M 215.97652,529.58622 L 250.55290,562.27293"
     id="path27" />
  <g
     id="g125"
     transform="matrix(2.521877,-6.450262e-3,6.665578e-3,2.440414,1248.761,-2471.407)"
     style="font-size:12;fill:#626262;">
    <text
       style="font-size:9;font-weight:bold;fill:#626262;stroke-width:1pt;font-family:Frutiger 45 Light;fill-opacity:1;"
       x="-494.149474"
       y="1166.905474"
       id="text68"
       transform="matrix(0.99382,-0.111005,0.111005,0.99382,0,0)"><tspan
         x="-494.14948"
         y="1166.9055"
         sodipodi:role="line"
         id="tspan71"
         style="fill:#626262;fill-opacity:1;">
m</tspan></text>
    <text
       style="font-size:9;font-weight:bold;fill:#626262;stroke-width:1pt;font-family:Frutiger 45 Light;fill-opacity:1;"
       x="-418.364342"
       y="1192.929413"
       id="text79"
       transform="matrix(0.998546,-0.0539115,0.0539115,0.998546,0,0)"><tspan
         x="-418.36435"
         y="1192.9294"
         sodipodi:role="line"
         id="tspan82"
         style="fill:#626262;fill-opacity:1;">
e</tspan></text>
    <text
       style="font-size:9;font-weight:bold;fill:#626262;stroke-width:1pt;font-family:Frutiger 45 Light;fill-opacity:1;"
       x="-297.612376"
       y="1226.839977"
       id="text84"
       transform="matrix(0.999141,0.0414321,-0.0414321,0.999141,0,0)"><tspan
         x="-297.61237"
         y="1226.8400"
         sodipodi:role="line"
         id="tspan87"
         style="fill:#626262;fill-opacity:1;">
n</tspan></text>
    <text
       style="font-size:9;font-weight:bold;fill:#626262;stroke-width:1pt;font-family:Frutiger 45 Light;fill-opacity:1;"
       x="-211.814596"
       y="1243.266139"
       id="text89"
       transform="matrix(0.994341,0.106241,-0.106241,0.994341,0,0)"><tspan
         x="-211.81459"
         y="1243.2661"
         sodipodi:role="line"
         id="tspan92"
         style="fill:#626262;fill-opacity:1;">
u</tspan></text>
  </g>
  <g
     id="g150"
     transform="matrix(2.521877,-6.450262e-3,6.665578e-3,2.440414,1291.033,-2460.839)"
     style="font-size:12;fill:#616161;">
    <rect
       style="fill-rule:evenodd;stroke:none;fill:#616161;fill-opacity:1;stroke-opacity:1;stroke-width:1pt;stroke-linejoin:miter;stroke-linecap:butt;"
       id="rect146"
       x="-360.916626"
       y="1366.016602"
       width="1.250000"
       height="4.375000" />
    <rect
       style="fill-rule:evenodd;stroke:none;fill:#616161;fill-opacity:1;stroke-opacity:1;stroke-width:1pt;stroke-linejoin:miter;stroke-linecap:butt;"
       id="rect149"
       x="-363.541626"
       y="1366.016602"
       width="1.250000"
       height="4.375000"
       rx="0.000000"
       ry="0.000000" />
  </g>
  <path
     style="font-size:12;fill:#616161;fill-rule:evenodd;stroke-width:0;"
     d="M 370.32893,886.02901 C 370.32893,886.02901 379.45566,880.49024 379.45566,880.49024 C 379.45566,880.49024 369.98450,875.34075 369.98450,875.34075 C 369.98450,875.34075 370.01369,886.02975 370.32893,886.02901 z "
     id="path165" />
  <rect
     style="font-size:12;fill:#616161;fill-rule:evenodd;stroke-width:1pt;"
     id="rect167"
     x="160.10561"
     y="678.84039"
     width="3.1523404"
     height="10.676804"
     rx="0.0000000"
     ry="0.0000000"
     transform="matrix(0.999997,-2.557807e-3,2.731420e-3,0.999996,0.000000,0.000000)" />
  <path
     style="font-size:12;fill:#616161;fill-rule:evenodd;stroke-width:0;"
     d="M 173.82942,678.26676 C 173.82942,678.26676 164.70268,683.80547 164.70268,683.80547 C 164.70268,683.80547 174.17385,688.95496 174.17385,688.95496 C 174.17385,688.95496 174.14466,678.26594 173.82942,678.26676 z "
     id="path169" />
  <path
     style="font-size:12;fill:#616161;fill-rule:evenodd;stroke-width:0;"
     d="M 182.97981,678.26676 C 182.97981,678.26676 173.85307,683.80547 173.85307,683.80547 C 173.85307,683.80547 183.32424,688.95496 183.32424,688.95496 C 183.32424,688.95496 183.29505,678.26594 182.97981,678.26676 z "
     id="path172" />
  <rect
     style="font-size:12;fill:#616161;fill-rule:evenodd;stroke-width:1pt;"
     id="rect174"
     x="-595.08888"
     y="-689.67239"
     width="3.1523404"
     height="10.676804"
     rx="0.0000000"
     ry="0.0000000"
     transform="matrix(-0.999997,2.557807e-3,-2.731420e-3,-0.999996,0.000000,0.000000)" />
  <path
     style="font-size:12;fill:#616161;fill-rule:evenodd;stroke-width:0;"
     d="M 585.10664,688.34221 C 585.10664,688.34221 594.23338,682.80349 594.23338,682.80349 C 594.23338,682.80349 584.76221,677.65400 584.76221,677.65400 C 584.76221,677.65400 584.79140,688.34301 585.10664,688.34221 z "
     id="path175" />
  <path
     style="font-size:12;fill:#616161;fill-rule:evenodd;stroke-width:0;"
     d="M 575.95227,688.36628 C 575.95227,688.36628 585.07901,682.82755 585.07901,682.82755 C 585.07901,682.82755 575.60784,677.67806 575.60784,677.67806 C 575.60784,677.67806 575.63703,688.36708 575.95227,688.36628 z "
     id="path176" />
</svg>
